<mxfile host="65bd71144e">
    <diagram id="65-flEa-fWN-J6Pb1Y1V" name="Page-1">
        <mxGraphModel dx="765" dy="1663" grid="1" gridSize="10" guides="1" tooltips="1" connect="1" arrows="1" fold="1" page="1" pageScale="1" pageWidth="850" pageHeight="1100" background="#ffffff" math="0" shadow="1">
            <root>
                <mxCell id="0"/>
                <mxCell id="1" parent="0"/>
                <UserObject label="" mermaidData="{&#xa;  &quot;data&quot;: &quot;classDiagram\n    %% Component Interface\n\n    class File {\n        &lt;&lt;interface&gt;&gt;\n        +showDetails()\n        +addFile(File file)\n    }\n\n    %% Leaf\n\n    class FileLeaf {\n        -String name\n        +FileLeaf(String name)\n        +showDetails()\n        +addFile(File file)\n    }\n\n    %% Composite\n\n    class DirectoryComposite {\n        -String name\n        -List~File~ files\n        +DirectoryComposite(String name)\n        +showDetails()\n        +addFile(File file)\n    }\n\n    %% Client\n\n    class CompositeDP {\n        +main(String[] args)\n    }\n\n    %% Relationships\n\n    File &lt;|.. FileLeaf : implements\n    File &lt;|.. DirectoryComposite : implements\n\n    DirectoryComposite --&gt; File : \&quot;contains\&quot;\n\n    CompositeDP --&gt; File : uses\n    CompositeDP --&gt; DirectoryComposite : uses\n&quot;&#xa;}" id="2">
                    <mxCell style="shape=image;noLabel=1;verticalAlign=top;imageAspect=1;image=data:image/svg+xml,PHN2ZyBhcmlhLXJvbGVkZXNjcmlwdGlvbj0iY2xhc3MiIHJvbGU9ImdyYXBoaWNzLWRvY3VtZW50IGRvY3VtZW50IiB2aWV3Qm94PSIwIDAgNjI4LjY4NzUgNjc2Ljc5OTk4Nzc5Mjk2ODgiIHN0eWxlPSJtYXgtd2lkdGg6IDYyOC42ODc1cHg7IiBjbGFzcz0iY2xhc3NEaWFncmFtIiB4bWxucz0iaHR0cDovL3d3dy53My5vcmcvMjAwMC9zdmciIHdpZHRoPSIxMDAlIiBpZD0iZ2VNZXJtYWlkT3V0cHV0LTE3NTMxMTAxNDE5NjUiPjxzdHlsZT4jZ2VNZXJtYWlkT3V0cHV0LTE3NTMxMTAxNDE5NjV7Zm9udC1mYW1pbHk6InRyZWJ1Y2hldCBtcyIsdmVyZGFuYSxhcmlhbCxzYW5zLXNlcmlmO2ZvbnQtc2l6ZToxNnB4O2ZpbGw6IzAwMDAwMDt9I2dlTWVybWFpZE91dHB1dC0xNzUzMTEwMTQxOTY1IC5lcnJvci1pY29ue2ZpbGw6IzU1MjIyMjt9I2dlTWVybWFpZE91dHB1dC0xNzUzMTEwMTQxOTY1IC5lcnJvci10ZXh0e2ZpbGw6IzU1MjIyMjtzdHJva2U6IzU1MjIyMjt9I2dlTWVybWFpZE91dHB1dC0xNzUzMTEwMTQxOTY1IC5lZGdlLXRoaWNrbmVzcy1ub3JtYWx7c3Ryb2tlLXdpZHRoOjFweDt9I2dlTWVybWFpZE91dHB1dC0xNzUzMTEwMTQxOTY1IC5lZGdlLXRoaWNrbmVzcy10aGlja3tzdHJva2Utd2lkdGg6My41cHg7fSNnZU1lcm1haWRPdXRwdXQtMTc1MzExMDE0MTk2NSAuZWRnZS1wYXR0ZXJuLXNvbGlke3N0cm9rZS1kYXNoYXJyYXk6MDt9I2dlTWVybWFpZE91dHB1dC0xNzUzMTEwMTQxOTY1IC5lZGdlLXRoaWNrbmVzcy1pbnZpc2libGV7c3Ryb2tlLXdpZHRoOjA7ZmlsbDpub25lO30jZ2VNZXJtYWlkT3V0cHV0LTE3NTMxMTAxNDE5NjUgLmVkZ2UtcGF0dGVybi1kYXNoZWR7c3Ryb2tlLWRhc2hhcnJheTozO30jZ2VNZXJtYWlkT3V0cHV0LTE3NTMxMTAxNDE5NjUgLmVkZ2UtcGF0dGVybi1kb3R0ZWR7c3Ryb2tlLWRhc2hhcnJheToyO30jZ2VNZXJtYWlkT3V0cHV0LTE3NTMxMTAxNDE5NjUgLm1hcmtlcntmaWxsOiM2NjY7c3Ryb2tlOiM2NjY7fSNnZU1lcm1haWRPdXRwdXQtMTc1MzExMDE0MTk2NSAubWFya2VyLmNyb3Nze3N0cm9rZTojNjY2O30jZ2VNZXJtYWlkT3V0cHV0LTE3NTMxMTAxNDE5NjUgc3Zne2ZvbnQtZmFtaWx5OiJ0cmVidWNoZXQgbXMiLHZlcmRhbmEsYXJpYWwsc2Fucy1zZXJpZjtmb250LXNpemU6MTZweDt9I2dlTWVybWFpZE91dHB1dC0xNzUzMTEwMTQxOTY1IHB7bWFyZ2luOjA7fSNnZU1lcm1haWRPdXRwdXQtMTc1MzExMDE0MTk2NSBnLmNsYXNzR3JvdXAgdGV4dHtmaWxsOiM5OTk7c3Ryb2tlOm5vbmU7Zm9udC1mYW1pbHk6InRyZWJ1Y2hldCBtcyIsdmVyZGFuYSxhcmlhbCxzYW5zLXNlcmlmO2ZvbnQtc2l6ZToxMHB4O30jZ2VNZXJtYWlkT3V0cHV0LTE3NTMxMTAxNDE5NjUgZy5jbGFzc0dyb3VwIHRleHQgLnRpdGxle2ZvbnQtd2VpZ2h0OmJvbGRlcjt9I2dlTWVybWFpZE91dHB1dC0xNzUzMTEwMTQxOTY1IC5ub2RlTGFiZWwsI2dlTWVybWFpZE91dHB1dC0xNzUzMTEwMTQxOTY1IC5lZGdlTGFiZWx7Y29sb3I6IzExMTExMTt9I2dlTWVybWFpZE91dHB1dC0xNzUzMTEwMTQxOTY1IC5lZGdlTGFiZWwgLmxhYmVsIHJlY3R7ZmlsbDojZWVlO30jZ2VNZXJtYWlkT3V0cHV0LTE3NTMxMTAxNDE5NjUgLmxhYmVsIHRleHR7ZmlsbDojMTExMTExO30jZ2VNZXJtYWlkT3V0cHV0LTE3NTMxMTAxNDE5NjUgLmxhYmVsQmtne2JhY2tncm91bmQ6I2VlZTt9I2dlTWVybWFpZE91dHB1dC0xNzUzMTEwMTQxOTY1IC5lZGdlTGFiZWwgLmxhYmVsIHNwYW57YmFja2dyb3VuZDojZWVlO30jZ2VNZXJtYWlkT3V0cHV0LTE3NTMxMTAxNDE5NjUgLmNsYXNzVGl0bGV7Zm9udC13ZWlnaHQ6Ym9sZGVyO30jZ2VNZXJtYWlkT3V0cHV0LTE3NTMxMTAxNDE5NjUgLm5vZGUgcmVjdCwjZ2VNZXJtYWlkT3V0cHV0LTE3NTMxMTAxNDE5NjUgLm5vZGUgY2lyY2xlLCNnZU1lcm1haWRPdXRwdXQtMTc1MzExMDE0MTk2NSAubm9kZSBlbGxpcHNlLCNnZU1lcm1haWRPdXRwdXQtMTc1MzExMDE0MTk2NSAubm9kZSBwb2x5Z29uLCNnZU1lcm1haWRPdXRwdXQtMTc1MzExMDE0MTk2NSAubm9kZSBwYXRoe2ZpbGw6I2VlZTtzdHJva2U6Izk5OTtzdHJva2Utd2lkdGg6MXB4O30jZ2VNZXJtYWlkT3V0cHV0LTE3NTMxMTAxNDE5NjUgLmRpdmlkZXJ7c3Ryb2tlOiM5OTk7c3Ryb2tlLXdpZHRoOjE7fSNnZU1lcm1haWRPdXRwdXQtMTc1MzExMDE0MTk2NSBnLmNsaWNrYWJsZXtjdXJzb3I6cG9pbnRlcjt9I2dlTWVybWFpZE91dHB1dC0xNzUzMTEwMTQxOTY1IGcuY2xhc3NHcm91cCByZWN0e2ZpbGw6I2VlZTtzdHJva2U6Izk5OTt9I2dlTWVybWFpZE91dHB1dC0xNzUzMTEwMTQxOTY1IGcuY2xhc3NHcm91cCBsaW5le3N0cm9rZTojOTk5O3N0cm9rZS13aWR0aDoxO30jZ2VNZXJtYWlkT3V0cHV0LTE3NTMxMTAxNDE5NjUgLmNsYXNzTGFiZWwgLmJveHtzdHJva2U6bm9uZTtzdHJva2Utd2lkdGg6MDtmaWxsOiNlZWU7b3BhY2l0eTowLjU7fSNnZU1lcm1haWRPdXRwdXQtMTc1MzExMDE0MTk2NSAuY2xhc3NMYWJlbCAubGFiZWx7ZmlsbDojOTk5O2ZvbnQtc2l6ZToxMHB4O30jZ2VNZXJtYWlkT3V0cHV0LTE3NTMxMTAxNDE5NjUgLnJlbGF0aW9ue3N0cm9rZTojNjY2O3N0cm9rZS13aWR0aDoxO2ZpbGw6bm9uZTt9I2dlTWVybWFpZE91dHB1dC0xNzUzMTEwMTQxOTY1IC5kYXNoZWQtbGluZXtzdHJva2UtZGFzaGFycmF5OjM7fSNnZU1lcm1haWRPdXRwdXQtMTc1MzExMDE0MTk2NSAuZG90dGVkLWxpbmV7c3Ryb2tlLWRhc2hhcnJheToxIDI7fSNnZU1lcm1haWRPdXRwdXQtMTc1MzExMDE0MTk2NSAjY29tcG9zaXRpb25TdGFydCwjZ2VNZXJtYWlkT3V0cHV0LTE3NTMxMTAxNDE5NjUgLmNvbXBvc2l0aW9ue2ZpbGw6IzY2NiFpbXBvcnRhbnQ7c3Ryb2tlOiM2NjYhaW1wb3J0YW50O3N0cm9rZS13aWR0aDoxO30jZ2VNZXJtYWlkT3V0cHV0LTE3NTMxMTAxNDE5NjUgI2NvbXBvc2l0aW9uRW5kLCNnZU1lcm1haWRPdXRwdXQtMTc1MzExMDE0MTk2NSAuY29tcG9zaXRpb257ZmlsbDojNjY2IWltcG9ydGFudDtzdHJva2U6IzY2NiFpbXBvcnRhbnQ7c3Ryb2tlLXdpZHRoOjE7fSNnZU1lcm1haWRPdXRwdXQtMTc1MzExMDE0MTk2NSAjZGVwZW5kZW5jeVN0YXJ0LCNnZU1lcm1haWRPdXRwdXQtMTc1MzExMDE0MTk2NSAuZGVwZW5kZW5jeXtmaWxsOiM2NjYhaW1wb3J0YW50O3N0cm9rZTojNjY2IWltcG9ydGFudDtzdHJva2Utd2lkdGg6MTt9I2dlTWVybWFpZE91dHB1dC0xNzUzMTEwMTQxOTY1ICNkZXBlbmRlbmN5U3RhcnQsI2dlTWVybWFpZE91dHB1dC0xNzUzMTEwMTQxOTY1IC5kZXBlbmRlbmN5e2ZpbGw6IzY2NiFpbXBvcnRhbnQ7c3Ryb2tlOiM2NjYhaW1wb3J0YW50O3N0cm9rZS13aWR0aDoxO30jZ2VNZXJtYWlkT3V0cHV0LTE3NTMxMTAxNDE5NjUgI2V4dGVuc2lvblN0YXJ0LCNnZU1lcm1haWRPdXRwdXQtMTc1MzExMDE0MTk2NSAuZXh0ZW5zaW9ue2ZpbGw6dHJhbnNwYXJlbnQhaW1wb3J0YW50O3N0cm9rZTojNjY2IWltcG9ydGFudDtzdHJva2Utd2lkdGg6MTt9I2dlTWVybWFpZE91dHB1dC0xNzUzMTEwMTQxOTY1ICNleHRlbnNpb25FbmQsI2dlTWVybWFpZE91dHB1dC0xNzUzMTEwMTQxOTY1IC5leHRlbnNpb257ZmlsbDp0cmFuc3BhcmVudCFpbXBvcnRhbnQ7c3Ryb2tlOiM2NjYhaW1wb3J0YW50O3N0cm9rZS13aWR0aDoxO30jZ2VNZXJtYWlkT3V0cHV0LTE3NTMxMTAxNDE5NjUgI2FnZ3JlZ2F0aW9uU3RhcnQsI2dlTWVybWFpZE91dHB1dC0xNzUzMTEwMTQxOTY1IC5hZ2dyZWdhdGlvbntmaWxsOnRyYW5zcGFyZW50IWltcG9ydGFudDtzdHJva2U6IzY2NiFpbXBvcnRhbnQ7c3Ryb2tlLXdpZHRoOjE7fSNnZU1lcm1haWRPdXRwdXQtMTc1MzExMDE0MTk2NSAjYWdncmVnYXRpb25FbmQsI2dlTWVybWFpZE91dHB1dC0xNzUzMTEwMTQxOTY1IC5hZ2dyZWdhdGlvbntmaWxsOnRyYW5zcGFyZW50IWltcG9ydGFudDtzdHJva2U6IzY2NiFpbXBvcnRhbnQ7c3Ryb2tlLXdpZHRoOjE7fSNnZU1lcm1haWRPdXRwdXQtMTc1MzExMDE0MTk2NSAjbG9sbGlwb3BTdGFydCwjZ2VNZXJtYWlkT3V0cHV0LTE3NTMxMTAxNDE5NjUgLmxvbGxpcG9we2ZpbGw6I2VlZSFpbXBvcnRhbnQ7c3Ryb2tlOiM2NjYhaW1wb3J0YW50O3N0cm9rZS13aWR0aDoxO30jZ2VNZXJtYWlkT3V0cHV0LTE3NTMxMTAxNDE5NjUgI2xvbGxpcG9wRW5kLCNnZU1lcm1haWRPdXRwdXQtMTc1MzExMDE0MTk2NSAubG9sbGlwb3B7ZmlsbDojZWVlIWltcG9ydGFudDtzdHJva2U6IzY2NiFpbXBvcnRhbnQ7c3Ryb2tlLXdpZHRoOjE7fSNnZU1lcm1haWRPdXRwdXQtMTc1MzExMDE0MTk2NSAuZWRnZVRlcm1pbmFsc3tmb250LXNpemU6MTFweDtsaW5lLWhlaWdodDppbml0aWFsO30jZ2VNZXJtYWlkT3V0cHV0LTE3NTMxMTAxNDE5NjUgLmNsYXNzVGl0bGVUZXh0e3RleHQtYW5jaG9yOm1pZGRsZTtmb250LXNpemU6MThweDtmaWxsOiMwMDAwMDA7fSNnZU1lcm1haWRPdXRwdXQtMTc1MzExMDE0MTk2NSA6cm9vdHstLW1lcm1haWQtZm9udC1mYW1pbHk6InRyZWJ1Y2hldCBtcyIsdmVyZGFuYSxhcmlhbCxzYW5zLXNlcmlmO308L3N0eWxlPjxnPjxkZWZzPjxtYXJrZXIgb3JpZW50PSJhdXRvIiBtYXJrZXJIZWlnaHQ9IjI0MCIgbWFya2VyV2lkdGg9IjE5MCIgcmVmWT0iNyIgcmVmWD0iMTgiIGNsYXNzPSJtYXJrZXIgYWdncmVnYXRpb24gY2xhc3MiIGlkPSJnZU1lcm1haWRPdXRwdXQtMTc1MzExMDE0MTk2NV9jbGFzcy1hZ2dyZWdhdGlvblN0YXJ0Ij48cGF0aCBkPSJNIDE4LDcgTDksMTMgTDEsNyBMOSwxIFoiPjwvcGF0aD48L21hcmtlcj48L2RlZnM+PGRlZnM+PG1hcmtlciBvcmllbnQ9ImF1dG8iIG1hcmtlckhlaWdodD0iMjgiIG1hcmtlcldpZHRoPSIyMCIgcmVmWT0iNyIgcmVmWD0iMSIgY2xhc3M9Im1hcmtlciBhZ2dyZWdhdGlvbiBjbGFzcyIgaWQ9ImdlTWVybWFpZE91dHB1dC0xNzUzMTEwMTQxOTY1X2NsYXNzLWFnZ3JlZ2F0aW9uRW5kIj48cGF0aCBkPSJNIDE4LDcgTDksMTMgTDEsNyBMOSwxIFoiPjwvcGF0aD48L21hcmtlcj48L2RlZnM+PGRlZnM+PG1hcmtlciBvcmllbnQ9ImF1dG8iIG1hcmtlckhlaWdodD0iMjQwIiBtYXJrZXJXaWR0aD0iMTkwIiByZWZZPSI3IiByZWZYPSIxOCIgY2xhc3M9Im1hcmtlciBleHRlbnNpb24gY2xhc3MiIGlkPSJnZU1lcm1haWRPdXRwdXQtMTc1MzExMDE0MTk2NV9jbGFzcy1leHRlbnNpb25TdGFydCI+PHBhdGggZD0iTSAxLDcgTDE4LDEzIFYgMSBaIj48L3BhdGg+PC9tYXJrZXI+PC9kZWZzPjxkZWZzPjxtYXJrZXIgb3JpZW50PSJhdXRvIiBtYXJrZXJIZWlnaHQ9IjI4IiBtYXJrZXJXaWR0aD0iMjAiIHJlZlk9IjciIHJlZlg9IjEiIGNsYXNzPSJtYXJrZXIgZXh0ZW5zaW9uIGNsYXNzIiBpZD0iZ2VNZXJtYWlkT3V0cHV0LTE3NTMxMTAxNDE5NjVfY2xhc3MtZXh0ZW5zaW9uRW5kIj48cGF0aCBkPSJNIDEsMSBWIDEzIEwxOCw3IFoiPjwvcGF0aD48L21hcmtlcj48L2RlZnM+PGRlZnM+PG1hcmtlciBvcmllbnQ9ImF1dG8iIG1hcmtlckhlaWdodD0iMjQwIiBtYXJrZXJXaWR0aD0iMTkwIiByZWZZPSI3IiByZWZYPSIxOCIgY2xhc3M9Im1hcmtlciBjb21wb3NpdGlvbiBjbGFzcyIgaWQ9ImdlTWVybWFpZE91dHB1dC0xNzUzMTEwMTQxOTY1X2NsYXNzLWNvbXBvc2l0aW9uU3RhcnQiPjxwYXRoIGQ9Ik0gMTgsNyBMOSwxMyBMMSw3IEw5LDEgWiI+PC9wYXRoPjwvbWFya2VyPjwvZGVmcz48ZGVmcz48bWFya2VyIG9yaWVudD0iYXV0byIgbWFya2VySGVpZ2h0PSIyOCIgbWFya2VyV2lkdGg9IjIwIiByZWZZPSI3IiByZWZYPSIxIiBjbGFzcz0ibWFya2VyIGNvbXBvc2l0aW9uIGNsYXNzIiBpZD0iZ2VNZXJtYWlkT3V0cHV0LTE3NTMxMTAxNDE5NjVfY2xhc3MtY29tcG9zaXRpb25FbmQiPjxwYXRoIGQ9Ik0gMTgsNyBMOSwxMyBMMSw3IEw5LDEgWiI+PC9wYXRoPjwvbWFya2VyPjwvZGVmcz48ZGVmcz48bWFya2VyIG9yaWVudD0iYXV0byIgbWFya2VySGVpZ2h0PSIyNDAiIG1hcmtlcldpZHRoPSIxOTAiIHJlZlk9IjciIHJlZlg9IjYiIGNsYXNzPSJtYXJrZXIgZGVwZW5kZW5jeSBjbGFzcyIgaWQ9ImdlTWVybWFpZE91dHB1dC0xNzUzMTEwMTQxOTY1X2NsYXNzLWRlcGVuZGVuY3lTdGFydCI+PHBhdGggZD0iTSA1LDcgTDksMTMgTDEsNyBMOSwxIFoiPjwvcGF0aD48L21hcmtlcj48L2RlZnM+PGRlZnM+PG1hcmtlciBvcmllbnQ9ImF1dG8iIG1hcmtlckhlaWdodD0iMjgiIG1hcmtlcldpZHRoPSIyMCIgcmVmWT0iNyIgcmVmWD0iMTMiIGNsYXNzPSJtYXJrZXIgZGVwZW5kZW5jeSBjbGFzcyIgaWQ9ImdlTWVybWFpZE91dHB1dC0xNzUzMTEwMTQxOTY1X2NsYXNzLWRlcGVuZGVuY3lFbmQiPjxwYXRoIGQ9Ik0gMTgsNyBMOSwxMyBMMTQsNyBMOSwxIFoiPjwvcGF0aD48L21hcmtlcj48L2RlZnM+PGRlZnM+PG1hcmtlciBvcmllbnQ9ImF1dG8iIG1hcmtlckhlaWdodD0iMjQwIiBtYXJrZXJXaWR0aD0iMTkwIiByZWZZPSI3IiByZWZYPSIxMyIgY2xhc3M9Im1hcmtlciBsb2xsaXBvcCBjbGFzcyIgaWQ9ImdlTWVybWFpZE91dHB1dC0xNzUzMTEwMTQxOTY1X2NsYXNzLWxvbGxpcG9wU3RhcnQiPjxjaXJjbGUgcj0iNiIgY3k9IjciIGN4PSI3IiBmaWxsPSJ0cmFuc3BhcmVudCIgc3Ryb2tlPSJibGFjayI+PC9jaXJjbGU+PC9tYXJrZXI+PC9kZWZzPjxkZWZzPjxtYXJrZXIgb3JpZW50PSJhdXRvIiBtYXJrZXJIZWlnaHQ9IjI0MCIgbWFya2VyV2lkdGg9IjE5MCIgcmVmWT0iNyIgcmVmWD0iMSIgY2xhc3M9Im1hcmtlciBsb2xsaXBvcCBjbGFzcyIgaWQ9ImdlTWVybWFpZE91dHB1dC0xNzUzMTEwMTQxOTY1X2NsYXNzLWxvbGxpcG9wRW5kIj48Y2lyY2xlIHI9IjYiIGN5PSI3IiBjeD0iNyIgZmlsbD0idHJhbnNwYXJlbnQiIHN0cm9rZT0iYmxhY2siPjwvY2lyY2xlPjwvbWFya2VyPjwvZGVmcz48ZyBjbGFzcz0icm9vdCI+PGcgY2xhc3M9ImNsdXN0ZXJzIj48L2c+PGcgY2xhc3M9ImVkZ2VQYXRocyI+PHBhdGggbWFya2VyLXN0YXJ0PSJ1cmwoI2dlTWVybWFpZE91dHB1dC0xNzUzMTEwMTQxOTY1X2NsYXNzLWV4dGVuc2lvblN0YXJ0KSIgc3R5bGU9IjsiIGNsYXNzPSJlZGdlLXRoaWNrbmVzcy1ub3JtYWwgZWRnZS1wYXR0ZXJuLWRhc2hlZCByZWxhdGlvbiIgaWQ9ImlkX0ZpbGVfRmlsZUxlYWZfMSIgZD0iTTIzOS4yOCwzNTIuMzc0TDIxOC44NiwzNjMuMDc4QzE5OC40NDEsMzczLjc4MywxNTcuNjAyLDM5NS4xOTEsMTM3LjE4Miw0MTMuOTI5QzExNi43NjMsNDMyLjY2NywxMTYuNzYzLDQ0OC43MzMsMTE2Ljc2Myw0NTYuNzY3TDExNi43NjMsNDY0LjgiPjwvcGF0aD48cGF0aCBtYXJrZXItc3RhcnQ9InVybCgjZ2VNZXJtYWlkT3V0cHV0LTE3NTMxMTAxNDE5NjVfY2xhc3MtZXh0ZW5zaW9uU3RhcnQpIiBzdHlsZT0iOyIgY2xhc3M9ImVkZ2UtdGhpY2tuZXNzLW5vcm1hbCBlZGdlLXBhdHRlcm4tZGFzaGVkIHJlbGF0aW9uIiBpZD0iaWRfRmlsZV9EaXJlY3RvcnlDb21wb3NpdGVfMiIgZD0iTTMxMC4zNTEsMzk3LjExNkwzMDkuMDU0LDQwMC4zNjNDMzA3Ljc1Nyw0MDMuNjExLDMwNS4xNjMsNDEwLjEwNSwzMDkuOTU1LDQxOS4zODZDMzE0Ljc0Nyw0MjguNjY3LDMyNi45MjYsNDQwLjczMywzMzMuMDE1LDQ0Ni43NjdMMzM5LjEwNSw0NTIuOCI+PC9wYXRoPjxwYXRoIG1hcmtlci1lbmQ9InVybCgjZ2VNZXJtYWlkT3V0cHV0LTE3NTMxMTAxNDE5NjVfY2xhc3MtZGVwZW5kZW5jeUVuZCkiIHN0eWxlPSI7IiBjbGFzcz0iZWRnZS10aGlja25lc3Mtbm9ybWFsIGVkZ2UtcGF0dGVybi1zb2xpZCByZWxhdGlvbiIgaWQ9ImlkX0RpcmVjdG9yeUNvbXBvc2l0ZV9GaWxlXzMiIGQ9Ik00NDguMTA2LDQ1Mi44TDQ0OC4xMDYsNDQ2Ljc2N0M0NDguMTA2LDQ0MC43MzMsNDQ4LjEwNiw0MjguNjY3LDQ0NC4wMDUsNDE3LjM4OEM0MzkuOTAzLDQwNi4xMDksNDMxLjcwMSwzOTUuNjE4LDQyNy41OTksMzkwLjM3Mkw0MjMuNDk4LDM4NS4xMjciPjwvcGF0aD48cGF0aCBtYXJrZXItZW5kPSJ1cmwoI2dlTWVybWFpZE91dHB1dC0xNzUzMTEwMTQxOTY1X2NsYXNzLWRlcGVuZGVuY3lFbmQpIiBzdHlsZT0iOyIgY2xhc3M9ImVkZ2UtdGhpY2tuZXNzLW5vcm1hbCBlZGdlLXBhdHRlcm4tc29saWQgcmVsYXRpb24iIGlkPSJpZF9Db21wb3NpdGVEUF9GaWxlXzQiIGQ9Ik00MDUuNDc3LDEzNEwzOTYuNTI3LDE0MC4wMzNDMzg3LjU3NywxNDYuMDY3LDM2OS42NzgsMTU4LjEzMywzNjAuNzI4LDE2OS4yQzM1MS43NzgsMTgwLjI2NywzNTEuNzc4LDE5MC4zMzMsMzUxLjc3OCwxOTUuMzY3TDM1MS43NzgsMjAwLjQiPjwvcGF0aD48cGF0aCBtYXJrZXItZW5kPSJ1cmwoI2dlTWVybWFpZE91dHB1dC0xNzUzMTEwMTQxOTY1X2NsYXNzLWRlcGVuZGVuY3lFbmQpIiBzdHlsZT0iOyIgY2xhc3M9ImVkZ2UtdGhpY2tuZXNzLW5vcm1hbCBlZGdlLXBhdHRlcm4tc29saWQgcmVsYXRpb24iIGlkPSJpZF9Db21wb3NpdGVEUF9EaXJlY3RvcnlDb21wb3NpdGVfNSIgZD0iTTUzMS4yMDksMTM0TDUzNC4zLDE0MC4wMzNDNTM3LjM5MiwxNDYuMDY3LDU0My41NzQsMTU4LjEzMyw1NDYuNjY1LDE4NC43QzU0OS43NTYsMjExLjI2Nyw1NDkuNzU2LDI1Mi4zMzMsNTQ5Ljc1NiwyOTMuNEM1NDkuNzU2LDMzNC40NjcsNTQ5Ljc1NiwzNzUuNTMzLDU0Ni4wNzksNDAxLjI4M0M1NDIuNDAzLDQyNy4wMzIsNTM1LjA0OSw0MzcuNDY0LDUzMS4zNzIsNDQyLjY4TDUyNy42OTUsNDQ3Ljg5NiI+PC9wYXRoPjwvZz48ZyBjbGFzcz0iZWRnZUxhYmVscyI+PGcgdHJhbnNmb3JtPSJ0cmFuc2xhdGUoMTE2Ljc2MjUwNDU3NzYzNjcyLCA0MTYuNTk5OTk5NDI3Nzk1NCkiIGNsYXNzPSJlZGdlTGFiZWwiPjxnIHRyYW5zZm9ybT0idHJhbnNsYXRlKC00My44ODc1MDA3NjI5Mzk0NSwgLTExLjE5OTk5OTgwOTI2NTEzNykiIGNsYXNzPSJsYWJlbCI+PGc+PHJlY3QgaGVpZ2h0PSIyMi4zOTk5OTk2MTg1MzAyNzMiIHdpZHRoPSI4Ny43NzUwMDE1MjU4Nzg5IiB5PSItMS4xOTk5OTk5ODgwNzkwNzEiIHg9Ii0yIiBzdHlsZT0iO2Rpc3BsYXk6IGlubGluZS1ibG9jayIgY2xhc3M9ImJhY2tncm91bmQiPjwvcmVjdD48dGV4dCBzdHlsZT0iO2Rpc3BsYXk6IGlubGluZS1ibG9jayIgeT0iLTEwLjEiPjx0c3BhbiBkeT0iMS4xZW0iIHk9Ii0wLjFlbSIgeD0iMCIgY2xhc3M9InRleHQtb3V0ZXItdHNwYW4iPjx0c3BhbiBmb250LXdlaWdodD0ibm9ybWFsIiBjbGFzcz0idGV4dC1pbm5lci10c3BhbiIgZm9udC1zdHlsZT0ibm9ybWFsIj5pbXBsZW1lbnRzPC90c3Bhbj48L3RzcGFuPjwvdGV4dD48L2c+PC9nPjwvZz48ZyB0cmFuc2Zvcm09InRyYW5zbGF0ZSgzMDIuNTY4NzU5OTE4MjEyOSwgNDE2LjU5OTk5OTQyNzc5NTQpIiBjbGFzcz0iZWRnZUxhYmVsIj48ZyB0cmFuc2Zvcm09InRyYW5zbGF0ZSgtNDMuODg3NTAwNzYyOTM5NDUsIC0xMS4xOTk5OTk4MDkyNjUxMzcpIiBjbGFzcz0ibGFiZWwiPjxnPjxyZWN0IGhlaWdodD0iMjIuMzk5OTk5NjE4NTMwMjczIiB3aWR0aD0iODcuNzc1MDAxNTI1ODc4OSIgeT0iLTEuMTk5OTk5OTg4MDc5MDcxIiB4PSItMiIgc3R5bGU9IjtkaXNwbGF5OiBpbmxpbmUtYmxvY2siIGNsYXNzPSJiYWNrZ3JvdW5kIj48L3JlY3Q+PHRleHQgc3R5bGU9IjtkaXNwbGF5OiBpbmxpbmUtYmxvY2siIHk9Ii0xMC4xIj48dHNwYW4gZHk9IjEuMWVtIiB5PSItMC4xZW0iIHg9IjAiIGNsYXNzPSJ0ZXh0LW91dGVyLXRzcGFuIj48dHNwYW4gZm9udC13ZWlnaHQ9Im5vcm1hbCIgY2xhc3M9InRleHQtaW5uZXItdHNwYW4iIGZvbnQtc3R5bGU9Im5vcm1hbCI+aW1wbGVtZW50czwvdHNwYW4+PC90c3Bhbj48L3RleHQ+PC9nPjwvZz48L2c+PGcgdHJhbnNmb3JtPSJ0cmFuc2xhdGUoNDQ4LjEwNjI2MjIwNzAzMTI1LCA0MTYuNTk5OTk5NDI3Nzk1NCkiIGNsYXNzPSJlZGdlTGFiZWwiPjxnIHRyYW5zZm9ybT0idHJhbnNsYXRlKC04MS42NTAwMDE1MjU4Nzg5LCAtMTEuMTk5OTk5ODA5MjY1MTM3KSIgY2xhc3M9ImxhYmVsIj48Zz48cmVjdCBoZWlnaHQ9IjIyLjM5OTk5OTYxODUzMDI3MyIgd2lkdGg9IjE2My4zMDAwMDMwNTE3NTc4IiB5PSItMS4xOTk5OTk5ODgwNzkwNzEiIHg9Ii0yIiBzdHlsZT0iO2Rpc3BsYXk6IGlubGluZS1ibG9jayIgY2xhc3M9ImJhY2tncm91bmQiPjwvcmVjdD48dGV4dCBzdHlsZT0iO2Rpc3BsYXk6IGlubGluZS1ibG9jayIgeT0iLTEwLjEiPjx0c3BhbiBkeT0iMS4xZW0iIHk9Ii0wLjFlbSIgeD0iMCIgY2xhc3M9InRleHQtb3V0ZXItdHNwYW4iPjx0c3BhbiBmb250LXdlaWdodD0ibm9ybWFsIiBjbGFzcz0idGV4dC1pbm5lci10c3BhbiIgZm9udC1zdHlsZT0ibm9ybWFsIj4mYW1wO3F1b3Q7Y29udGFpbnMmYW1wO3F1b3Q7PC90c3Bhbj48L3RzcGFuPjwvdGV4dD48L2c+PC9nPjwvZz48ZyB0cmFuc2Zvcm09InRyYW5zbGF0ZSgzNTEuNzc4MTM2MjUzMzU2OTMsIDE3MC4xOTk5OTk4MDkyNjUxNCkiIGNsYXNzPSJlZGdlTGFiZWwiPjxnIHRyYW5zZm9ybT0idHJhbnNsYXRlKC0xNy4yMTI0OTk2MTg1MzAyNzMsIC0xMS4xOTk5OTk4MDkyNjUxMzcpIiBjbGFzcz0ibGFiZWwiPjxnPjxyZWN0IGhlaWdodD0iMjIuMzk5OTk5NjE4NTMwMjczIiB3aWR0aD0iMzQuNDI1MDAxMTQ0NDA5MTgiIHk9Ii0xLjE5OTk5OTk4ODA3OTA3MSIgeD0iLTIiIHN0eWxlPSI7ZGlzcGxheTogaW5saW5lLWJsb2NrIiBjbGFzcz0iYmFja2dyb3VuZCI+PC9yZWN0Pjx0ZXh0IHN0eWxlPSI7ZGlzcGxheTogaW5saW5lLWJsb2NrIiB5PSItMTAuMSI+PHRzcGFuIGR5PSIxLjFlbSIgeT0iLTAuMWVtIiB4PSIwIiBjbGFzcz0idGV4dC1vdXRlci10c3BhbiI+PHRzcGFuIGZvbnQtd2VpZ2h0PSJub3JtYWwiIGNsYXNzPSJ0ZXh0LWlubmVyLXRzcGFuIiBmb250LXN0eWxlPSJub3JtYWwiPnVzZXM8L3RzcGFuPjwvdHNwYW4+PC90ZXh0PjwvZz48L2c+PC9nPjxnIHRyYW5zZm9ybT0idHJhbnNsYXRlKDU0OS43NTYyNjM3MzI5MTAyLCAyOTMuMzk5OTk5NjE4NTMwMykiIGNsYXNzPSJlZGdlTGFiZWwiPjxnIHRyYW5zZm9ybT0idHJhbnNsYXRlKC0xNy4yMTI0OTk2MTg1MzAyNzMsIC0xMS4xOTk5OTk4MDkyNjUxMzcpIiBjbGFzcz0ibGFiZWwiPjxnPjxyZWN0IGhlaWdodD0iMjIuMzk5OTk5NjE4NTMwMjczIiB3aWR0aD0iMzQuNDI1MDAxMTQ0NDA5MTgiIHk9Ii0xLjE5OTk5OTk4ODA3OTA3MSIgeD0iLTIiIHN0eWxlPSI7ZGlzcGxheTogaW5saW5lLWJsb2NrIiBjbGFzcz0iYmFja2dyb3VuZCI+PC9yZWN0Pjx0ZXh0IHN0eWxlPSI7ZGlzcGxheTogaW5saW5lLWJsb2NrIiB5PSItMTAuMSI+PHRzcGFuIGR5PSIxLjFlbSIgeT0iLTAuMWVtIiB4PSIwIiBjbGFzcz0idGV4dC1vdXRlci10c3BhbiI+PHRzcGFuIGZvbnQtd2VpZ2h0PSJub3JtYWwiIGNsYXNzPSJ0ZXh0LWlubmVyLXRzcGFuIiBmb250LXN0eWxlPSJub3JtYWwiPnVzZXM8L3RzcGFuPjwvdHNwYW4+PC90ZXh0PjwvZz48L2c+PC9nPjwvZz48ZyBjbGFzcz0ibm9kZXMiPjxnIHRyYW5zZm9ybT0idHJhbnNsYXRlKDM1MS43NzgxMzYyNTMzNTY5MywgMjkzLjM5OTk5OTYxODUzMDMpIiBpZD0iY2xhc3NJZC1GaWxlLTAiIGNsYXNzPSJub2RlIGRlZmF1bHQiPjxnIGNsYXNzPSJiYXNpYyBsYWJlbC1jb250YWluZXIiPjxwYXRoIHN0eWxlPSIiIGZpbGw9IiNlZWUiIHN0cm9rZS13aWR0aD0iMCIgc3Ryb2tlPSJub25lIiBkPSJNLTk2LjU1NjI1MTUyNTg3ODkgLTg3IEw5Ni41NTYyNTE1MjU4Nzg5IC04NyBMOTYuNTU2MjUxNTI1ODc4OSA4NyBMLTk2LjU1NjI1MTUyNTg3ODkgODciPjwvcGF0aD48cGF0aCBzdHlsZT0iIiBmaWxsPSJub25lIiBzdHJva2Utd2lkdGg9IjEuMyIgc3Ryb2tlPSIjOTk5IiBkPSJNLTk2LjU1NjI1MTUyNTg3ODkgLTg3IEMtMzkuMTY5Mjg3MDEyNTgwMDIgLTg3LCAxOC4yMTc2Nzc1MDA3MTg4NjQgLTg3LCA5Ni41NTYyNTE1MjU4Nzg5IC04NyBNLTk2LjU1NjI1MTUyNTg3ODkgLTg3IEMtMjMuMDg0Nzc1MTE2NzIyMDE0IC04NywgNTAuMzg2NzAxMjkyNDM0ODggLTg3LCA5Ni41NTYyNTE1MjU4Nzg5IC04NyBNOTYuNTU2MjUxNTI1ODc4OSAtODcgQzk2LjU1NjI1MTUyNTg3ODkgLTE3LjgxNjc3MzQ5Njc5NjQ4NiwgOTYuNTU2MjUxNTI1ODc4OSA1MS4zNjY0NTMwMDY0MDcwMywgOTYuNTU2MjUxNTI1ODc4OSA4NyBNOTYuNTU2MjUxNTI1ODc4OSAtODcgQzk2LjU1NjI1MTUyNTg3ODkgLTM5LjYxMzU0NDgzMzAyNzk4LCA5Ni41NTYyNTE1MjU4Nzg5IDcuNzcyOTEwMzMzOTQ0MDQsIDk2LjU1NjI1MTUyNTg3ODkgODcgTTk2LjU1NjI1MTUyNTg3ODkgODcgQzQzLjQ1OTAzOTE2NzA5MjcyIDg3LCAtOS42MzgxNzMxOTE2OTM0NjggODcsIC05Ni41NTYyNTE1MjU4Nzg5IDg3IE05Ni41NTYyNTE1MjU4Nzg5IDg3IEMzNi4yMzg0MDI4Njk2MTU2NzYgODcsIC0yNC4wNzk0NDU3ODY2NDc1NTQgODcsIC05Ni41NTYyNTE1MjU4Nzg5IDg3IE0tOTYuNTU2MjUxNTI1ODc4OSA4NyBDLTk2LjU1NjI1MTUyNTg3ODkgMjIuOTg1ODcyNDg1MDM3NjAzLCAtOTYuNTU2MjUxNTI1ODc4OSAtNDEuMDI4MjU1MDI5OTI0NzksIC05Ni41NTYyNTE1MjU4Nzg5IC04NyBNLTk2LjU1NjI1MTUyNTg3ODkgODcgQy05Ni41NTYyNTE1MjU4Nzg5IDUxLjc3MTc1NTEyNDE1OTc4LCAtOTYuNTU2MjUxNTI1ODc4OSAxNi41NDM1MTAyNDgzMTk1NjQsIC05Ni41NTYyNTE1MjU4Nzg5IC04NyI+PC9wYXRoPjwvZz48ZyB0cmFuc2Zvcm09InRyYW5zbGF0ZSgtNDEuMTc0OTk5MjM3MDYwNTUsIC02MykiIGNsYXNzPSJhbm5vdGF0aW9uLWdyb3VwIHRleHQiPjxnIHRyYW5zZm9ybT0idHJhbnNsYXRlKDAsLTEyKSIgc3R5bGU9IiIgY2xhc3M9ImxhYmVsIj48Zm9yZWlnbk9iamVjdCBoZWlnaHQ9IjI0IiB3aWR0aD0iODIuMzQ5OTk4NDc0MTIxMSI+PGRpdiBzdHlsZT0iZGlzcGxheTogdGFibGUtY2VsbDsgd2hpdGUtc3BhY2U6IG5vd3JhcDsgbGluZS1oZWlnaHQ6IDEuNTsgbWF4LXdpZHRoOiAxMjdweDsgdGV4dC1hbGlnbjogY2VudGVyOyIgeG1sbnM9Imh0dHA6Ly93d3cudzMub3JnLzE5OTkveGh0bWwiPjxzcGFuIHN0eWxlPSIiIGNsYXNzPSJub2RlTGFiZWwgbWFya2Rvd24tbm9kZS1sYWJlbCI+PHA+wqtpbnRlcmZhY2XCuzwvcD48L3NwYW4+PC9kaXY+PC9mb3JlaWduT2JqZWN0PjwvZz48L2c+PGcgdHJhbnNmb3JtPSJ0cmFuc2xhdGUoLTE0LjAxMjQ5OTgwOTI2NTEzNywgLTM5KSIgY2xhc3M9ImxhYmVsLWdyb3VwIHRleHQiPjxnIHRyYW5zZm9ybT0idHJhbnNsYXRlKDAsLTEyKSIgc3R5bGU9ImZvbnQtd2VpZ2h0OiBib2xkZXIiIGNsYXNzPSJsYWJlbCI+PGZvcmVpZ25PYmplY3QgaGVpZ2h0PSIyNCIgd2lkdGg9IjI4LjAyNDk5OTYxODUzMDI3MyI+PGRpdiBzdHlsZT0iZGlzcGxheTogdGFibGUtY2VsbDsgd2hpdGUtc3BhY2U6IG5vd3JhcDsgbGluZS1oZWlnaHQ6IDEuNTsgbWF4LXdpZHRoOiA3NHB4OyB0ZXh0LWFsaWduOiBjZW50ZXI7IiB4bWxucz0iaHR0cDovL3d3dy53My5vcmcvMTk5OS94aHRtbCI+PHNwYW4gc3R5bGU9IiIgY2xhc3M9Im5vZGVMYWJlbCBtYXJrZG93bi1ub2RlLWxhYmVsIj48cD5GaWxlPC9wPjwvc3Bhbj48L2Rpdj48L2ZvcmVpZ25PYmplY3Q+PC9nPjwvZz48ZyB0cmFuc2Zvcm09InRyYW5zbGF0ZSgtODQuNTU2MjUxNTI1ODc4OSwgOSkiIGNsYXNzPSJtZW1iZXJzLWdyb3VwIHRleHQiPjwvZz48ZyB0cmFuc2Zvcm09InRyYW5zbGF0ZSgtODQuNTU2MjUxNTI1ODc4OSwgMzkpIiBjbGFzcz0ibWV0aG9kcy1ncm91cCB0ZXh0Ij48ZyB0cmFuc2Zvcm09InRyYW5zbGF0ZSgwLC0xMikiIHN0eWxlPSIiIGNsYXNzPSJsYWJlbCI+PGZvcmVpZ25PYmplY3QgaGVpZ2h0PSIyNCIgd2lkdGg9IjEwNC45MDAwMDE1MjU4Nzg5Ij48ZGl2IHN0eWxlPSJkaXNwbGF5OiB0YWJsZS1jZWxsOyB3aGl0ZS1zcGFjZTogbm93cmFwOyBsaW5lLWhlaWdodDogMS41OyBtYXgtd2lkdGg6IDE2MnB4OyB0ZXh0LWFsaWduOiBjZW50ZXI7IiB4bWxucz0iaHR0cDovL3d3dy53My5vcmcvMTk5OS94aHRtbCI+PHNwYW4gc3R5bGU9IiIgY2xhc3M9Im5vZGVMYWJlbCBtYXJrZG93bi1ub2RlLWxhYmVsIj48cD4rc2hvd0RldGFpbHMoKTwvcD48L3NwYW4+PC9kaXY+PC9mb3JlaWduT2JqZWN0PjwvZz48ZyB0cmFuc2Zvcm09InRyYW5zbGF0ZSgwLDEyKSIgc3R5bGU9IiIgY2xhc3M9ImxhYmVsIj48Zm9yZWlnbk9iamVjdCBoZWlnaHQ9IjI0IiB3aWR0aD0iMTI3LjkzNzUiPjxkaXYgc3R5bGU9ImRpc3BsYXk6IHRhYmxlLWNlbGw7IHdoaXRlLXNwYWNlOiBub3dyYXA7IGxpbmUtaGVpZ2h0OiAxLjU7IG1heC13aWR0aDogMTc4cHg7IHRleHQtYWxpZ246IGNlbnRlcjsiIHhtbG5zPSJodHRwOi8vd3d3LnczLm9yZy8xOTk5L3hodG1sIj48c3BhbiBzdHlsZT0iIiBjbGFzcz0ibm9kZUxhYmVsIG1hcmtkb3duLW5vZGUtbGFiZWwiPjxwPithZGRGaWxlKEZpbGUgZmlsZSk8L3A+PC9zcGFuPjwvZGl2PjwvZm9yZWlnbk9iamVjdD48L2c+PC9nPjxnIHN0eWxlPSIiIGNsYXNzPSJkaXZpZGVyIj48cGF0aCBzdHlsZT0iIiBmaWxsPSJub25lIiBzdHJva2Utd2lkdGg9IjEuMyIgc3Ryb2tlPSIjOTk5IiBkPSJNLTk2LjU1NjI1MTUyNTg3ODkgLTE1IEMtNTEuMTQ5NjA5MzY5NjI5OTQgLTE1LCAtNS43NDI5NjcyMTMzODA5NzkgLTE1LCA5Ni41NTYyNTE1MjU4Nzg5IC0xNSBNLTk2LjU1NjI1MTUyNTg3ODkgLTE1IEMtNDguNjc2NTIyNDA3ODU4ODA1IC0xNSwgLTAuNzk2NzkzMjg5ODM4NzAzMyAtMTUsIDk2LjU1NjI1MTUyNTg3ODkgLTE1Ij48L3BhdGg+PC9nPjxnIHN0eWxlPSIiIGNsYXNzPSJkaXZpZGVyIj48cGF0aCBzdHlsZT0iIiBmaWxsPSJub25lIiBzdHJva2Utd2lkdGg9IjEuMyIgc3Ryb2tlPSIjOTk5IiBkPSJNLTk2LjU1NjI1MTUyNTg3ODkgOSBDLTUwLjc0ODI0MzE2OTM2OTkzNSA5LCAtNC45NDAyMzQ4MTI4NjA5NjQ2IDksIDk2LjU1NjI1MTUyNTg3ODkgOSBNLTk2LjU1NjI1MTUyNTg3ODkgOSBDLTQwLjIwODg3MTA2NzkwOTYgOSwgMTYuMTM4NTA5MzkwMDU5NzEgOSwgOTYuNTU2MjUxNTI1ODc4OSA5Ij48L3BhdGg+PC9nPjwvZz48ZyB0cmFuc2Zvcm09InRyYW5zbGF0ZSgxMTYuNzYyNTA0NTc3NjM2NzIsIDU2MC43OTk5OTkyMzcwNjA1KSIgaWQ9ImNsYXNzSWQtRmlsZUxlYWYtMSIgY2xhc3M9Im5vZGUgZGVmYXVsdCI+PGcgY2xhc3M9ImJhc2ljIGxhYmVsLWNvbnRhaW5lciI+PHBhdGggc3R5bGU9IiIgZmlsbD0iI2VlZSIgc3Ryb2tlLXdpZHRoPSIwIiBzdHJva2U9Im5vbmUiIGQ9Ik0tMTA4Ljc2MjUwNDU3NzYzNjcyIC05NiBMMTA4Ljc2MjUwNDU3NzYzNjcyIC05NiBMMTA4Ljc2MjUwNDU3NzYzNjcyIDk2IEwtMTA4Ljc2MjUwNDU3NzYzNjcyIDk2Ij48L3BhdGg+PHBhdGggc3R5bGU9IiIgZmlsbD0ibm9uZSIgc3Ryb2tlLXdpZHRoPSIxLjMiIHN0cm9rZT0iIzk5OSIgZD0iTS0xMDguNzYyNTA0NTc3NjM2NzIgLTk2IEMtNjQuMDI4OTE1NzIzNjU5NiAtOTYsIC0xOS4yOTUzMjY4Njk2ODI0ODQgLTk2LCAxMDguNzYyNTA0NTc3NjM2NzIgLTk2IE0tMTA4Ljc2MjUwNDU3NzYzNjcyIC05NiBDLTU0LjU5MjM2NjcyMjkzMTU0NCAtOTYsIC0wLjQyMjIyODg2ODIyNjM2OTUgLTk2LCAxMDguNzYyNTA0NTc3NjM2NzIgLTk2IE0xMDguNzYyNTA0NTc3NjM2NzIgLTk2IEMxMDguNzYyNTA0NTc3NjM2NzIgLTIyLjE3OTE1OTMzOTk5MDAwOCwgMTA4Ljc2MjUwNDU3NzYzNjcyIDUxLjY0MTY4MTMyMDAxOTk4NCwgMTA4Ljc2MjUwNDU3NzYzNjcyIDk2IE0xMDguNzYyNTA0NTc3NjM2NzIgLTk2IEMxMDguNzYyNTA0NTc3NjM2NzIgLTQ5LjkwMzQwMzUxMjA3NTA0NSwgMTA4Ljc2MjUwNDU3NzYzNjcyIC0zLjgwNjgwNzAyNDE1MDA4OSwgMTA4Ljc2MjUwNDU3NzYzNjcyIDk2IE0xMDguNzYyNTA0NTc3NjM2NzIgOTYgQzMxLjc2NTY4Mzg2MTI3OTM0MiA5NiwgLTQ1LjIzMTEzNjg1NTA3ODAzNCA5NiwgLTEwOC43NjI1MDQ1Nzc2MzY3MiA5NiBNMTA4Ljc2MjUwNDU3NzYzNjcyIDk2IEMzNS42MjQxNjUzMTE5NDczNjUgOTYsIC0zNy41MTQxNzM5NTM3NDE5OSA5NiwgLTEwOC43NjI1MDQ1Nzc2MzY3MiA5NiBNLTEwOC43NjI1MDQ1Nzc2MzY3MiA5NiBDLTEwOC43NjI1MDQ1Nzc2MzY3MiAyMS44OTM2NTE5NDc4MTg3NCwgLTEwOC43NjI1MDQ1Nzc2MzY3MiAtNTIuMjEyNjk2MTA0MzYyNTIsIC0xMDguNzYyNTA0NTc3NjM2NzIgLTk2IE0tMTA4Ljc2MjUwNDU3NzYzNjcyIDk2IEMtMTA4Ljc2MjUwNDU3NzYzNjcyIDMzLjgyNTg5OTQ5NzcwODg3LCAtMTA4Ljc2MjUwNDU3NzYzNjcyIC0yOC4zNDgyMDEwMDQ1ODIyNjUsIC0xMDguNzYyNTA0NTc3NjM2NzIgLTk2Ij48L3BhdGg+PC9nPjxnIHRyYW5zZm9ybT0idHJhbnNsYXRlKDAsIC03MikiIGNsYXNzPSJhbm5vdGF0aW9uLWdyb3VwIHRleHQiPjwvZz48ZyB0cmFuc2Zvcm09InRyYW5zbGF0ZSgtMzAuMjUsIC03MikiIGNsYXNzPSJsYWJlbC1ncm91cCB0ZXh0Ij48ZyB0cmFuc2Zvcm09InRyYW5zbGF0ZSgwLC0xMikiIHN0eWxlPSJmb250LXdlaWdodDogYm9sZGVyIiBjbGFzcz0ibGFiZWwiPjxmb3JlaWduT2JqZWN0IGhlaWdodD0iMjQiIHdpZHRoPSI2MC41Ij48ZGl2IHN0eWxlPSJkaXNwbGF5OiB0YWJsZS1jZWxsOyB3aGl0ZS1zcGFjZTogbm93cmFwOyBsaW5lLWhlaWdodDogMS41OyBtYXgtd2lkdGg6IDEwNHB4OyB0ZXh0LWFsaWduOiBjZW50ZXI7IiB4bWxucz0iaHR0cDovL3d3dy53My5vcmcvMTk5OS94aHRtbCI+PHNwYW4gc3R5bGU9IiIgY2xhc3M9Im5vZGVMYWJlbCBtYXJrZG93bi1ub2RlLWxhYmVsIj48cD5GaWxlTGVhZjwvcD48L3NwYW4+PC9kaXY+PC9mb3JlaWduT2JqZWN0PjwvZz48L2c+PGcgdHJhbnNmb3JtPSJ0cmFuc2xhdGUoLTk2Ljc2MjUwNDU3NzYzNjcyLCAtMjQpIiBjbGFzcz0ibWVtYmVycy1ncm91cCB0ZXh0Ij48ZyB0cmFuc2Zvcm09InRyYW5zbGF0ZSgwLC0xMikiIHN0eWxlPSIiIGNsYXNzPSJsYWJlbCI+PGZvcmVpZ25PYmplY3QgaGVpZ2h0PSIyNCIgd2lkdGg9IjkxLjQ1MDAwNDU3NzYzNjcyIj48ZGl2IHN0eWxlPSJkaXNwbGF5OiB0YWJsZS1jZWxsOyB3aGl0ZS1zcGFjZTogbm93cmFwOyBsaW5lLWhlaWdodDogMS41OyBtYXgtd2lkdGg6IDE0OHB4OyB0ZXh0LWFsaWduOiBjZW50ZXI7IiB4bWxucz0iaHR0cDovL3d3dy53My5vcmcvMTk5OS94aHRtbCI+PHNwYW4gc3R5bGU9IiIgY2xhc3M9Im5vZGVMYWJlbCBtYXJrZG93bi1ub2RlLWxhYmVsIj48cD4tU3RyaW5nIG5hbWU8L3A+PC9zcGFuPjwvZGl2PjwvZm9yZWlnbk9iamVjdD48L2c+PC9nPjxnIHRyYW5zZm9ybT0idHJhbnNsYXRlKC05Ni43NjI1MDQ1Nzc2MzY3MiwgMjQpIiBjbGFzcz0ibWV0aG9kcy1ncm91cCB0ZXh0Ij48ZyB0cmFuc2Zvcm09InRyYW5zbGF0ZSgwLC0xMikiIHN0eWxlPSIiIGNsYXNzPSJsYWJlbCI+PGZvcmVpZ25PYmplY3QgaGVpZ2h0PSIyNCIgd2lkdGg9IjE2My4yNzUwMDkxNTUyNzM0NCI+PGRpdiBzdHlsZT0iZGlzcGxheTogdGFibGUtY2VsbDsgd2hpdGUtc3BhY2U6IG5vd3JhcDsgbGluZS1oZWlnaHQ6IDEuNTsgbWF4LXdpZHRoOiAyMTVweDsgdGV4dC1hbGlnbjogY2VudGVyOyIgeG1sbnM9Imh0dHA6Ly93d3cudzMub3JnLzE5OTkveGh0bWwiPjxzcGFuIHN0eWxlPSIiIGNsYXNzPSJub2RlTGFiZWwgbWFya2Rvd24tbm9kZS1sYWJlbCI+PHA+K0ZpbGVMZWFmKFN0cmluZyBuYW1lKTwvcD48L3NwYW4+PC9kaXY+PC9mb3JlaWduT2JqZWN0PjwvZz48ZyB0cmFuc2Zvcm09InRyYW5zbGF0ZSgwLDEyKSIgc3R5bGU9IiIgY2xhc3M9ImxhYmVsIj48Zm9yZWlnbk9iamVjdCBoZWlnaHQ9IjI0IiB3aWR0aD0iMTA0LjkwMDAwMTUyNTg3ODkiPjxkaXYgc3R5bGU9ImRpc3BsYXk6IHRhYmxlLWNlbGw7IHdoaXRlLXNwYWNlOiBub3dyYXA7IGxpbmUtaGVpZ2h0OiAxLjU7IG1heC13aWR0aDogMTYycHg7IHRleHQtYWxpZ246IGNlbnRlcjsiIHhtbG5zPSJodHRwOi8vd3d3LnczLm9yZy8xOTk5L3hodG1sIj48c3BhbiBzdHlsZT0iIiBjbGFzcz0ibm9kZUxhYmVsIG1hcmtkb3duLW5vZGUtbGFiZWwiPjxwPitzaG93RGV0YWlscygpPC9wPjwvc3Bhbj48L2Rpdj48L2ZvcmVpZ25PYmplY3Q+PC9nPjxnIHRyYW5zZm9ybT0idHJhbnNsYXRlKDAsMzYpIiBzdHlsZT0iIiBjbGFzcz0ibGFiZWwiPjxmb3JlaWduT2JqZWN0IGhlaWdodD0iMjQiIHdpZHRoPSIxMjcuOTM3NSI+PGRpdiBzdHlsZT0iZGlzcGxheTogdGFibGUtY2VsbDsgd2hpdGUtc3BhY2U6IG5vd3JhcDsgbGluZS1oZWlnaHQ6IDEuNTsgbWF4LXdpZHRoOiAxNzhweDsgdGV4dC1hbGlnbjogY2VudGVyOyIgeG1sbnM9Imh0dHA6Ly93d3cudzMub3JnLzE5OTkveGh0bWwiPjxzcGFuIHN0eWxlPSIiIGNsYXNzPSJub2RlTGFiZWwgbWFya2Rvd24tbm9kZS1sYWJlbCI+PHA+K2FkZEZpbGUoRmlsZSBmaWxlKTwvcD48L3NwYW4+PC9kaXY+PC9mb3JlaWduT2JqZWN0PjwvZz48L2c+PGcgc3R5bGU9IiIgY2xhc3M9ImRpdmlkZXIiPjxwYXRoIHN0eWxlPSIiIGZpbGw9Im5vbmUiIHN0cm9rZS13aWR0aD0iMS4zIiBzdHJva2U9IiM5OTkiIGQ9Ik0tMTA4Ljc2MjUwNDU3NzYzNjcyIC00OCBDLTQ2LjU4MDQ1OTIyNzkxNTE5IC00OCwgMTUuNjAxNTg2MTIxODA2MzM1IC00OCwgMTA4Ljc2MjUwNDU3NzYzNjcyIC00OCBNLTEwOC43NjI1MDQ1Nzc2MzY3MiAtNDggQy0zMi42NjY1ODM1OTkxMjE3NSAtNDgsIDQzLjQyOTMzNzM3OTM5MzIyIC00OCwgMTA4Ljc2MjUwNDU3NzYzNjcyIC00OCI+PC9wYXRoPjwvZz48ZyBzdHlsZT0iIiBjbGFzcz0iZGl2aWRlciI+PHBhdGggc3R5bGU9IiIgZmlsbD0ibm9uZSIgc3Ryb2tlLXdpZHRoPSIxLjMiIHN0cm9rZT0iIzk5OSIgZD0iTS0xMDguNzYyNTA0NTc3NjM2NzIgMCBDLTI3LjI1Mjg2ODExMTk5ODczNyAwLCA1NC4yNTY3NjgzNTM2MzkyNDUgMCwgMTA4Ljc2MjUwNDU3NzYzNjcyIDAgTS0xMDguNzYyNTA0NTc3NjM2NzIgMCBDLTUxLjc5MTY2OTY3NjgxODg1IDAsIDUuMTc5MTY1MjIzOTk5MDIxIDAsIDEwOC43NjI1MDQ1Nzc2MzY3MiAwIj48L3BhdGg+PC9nPjwvZz48ZyB0cmFuc2Zvcm09InRyYW5zbGF0ZSg0NDguMTA2MjYyMjA3MDMxMjUsIDU2MC43OTk5OTkyMzcwNjA1KSIgaWQ9ImNsYXNzSWQtRGlyZWN0b3J5Q29tcG9zaXRlLTIiIGNsYXNzPSJub2RlIGRlZmF1bHQiPjxnIGNsYXNzPSJiYXNpYyBsYWJlbC1jb250YWluZXIiPjxwYXRoIHN0eWxlPSIiIGZpbGw9IiNlZWUiIHN0cm9rZS13aWR0aD0iMCIgc3Ryb2tlPSJub25lIiBkPSJNLTE3Mi41ODEyNTMwNTE3NTc4IC0xMDggTDE3Mi41ODEyNTMwNTE3NTc4IC0xMDggTDE3Mi41ODEyNTMwNTE3NTc4IDEwOCBMLTE3Mi41ODEyNTMwNTE3NTc4IDEwOCI+PC9wYXRoPjxwYXRoIHN0eWxlPSIiIGZpbGw9Im5vbmUiIHN0cm9rZS13aWR0aD0iMS4zIiBzdHJva2U9IiM5OTkiIGQ9Ik0tMTcyLjU4MTI1MzA1MTc1NzggLTEwOCBDLTQwLjk5ODMzMzA3NTI0NjM5IC0xMDgsIDkwLjU4NDU4NjkwMTI2NTAzIC0xMDgsIDE3Mi41ODEyNTMwNTE3NTc4IC0xMDggTS0xNzIuNTgxMjUzMDUxNzU3OCAtMTA4IEMtODIuMTU4MTE1MTUwMTY5MjUgLTEwOCwgOC4yNjUwMjI3NTE0MTkzMDkgLTEwOCwgMTcyLjU4MTI1MzA1MTc1NzggLTEwOCBNMTcyLjU4MTI1MzA1MTc1NzggLTEwOCBDMTcyLjU4MTI1MzA1MTc1NzggLTM4Ljg0MzU2OTEzMTUwMjI2NCwgMTcyLjU4MTI1MzA1MTc1NzggMzAuMzEyODYxNzM2OTk1NDcyLCAxNzIuNTgxMjUzMDUxNzU3OCAxMDggTTE3Mi41ODEyNTMwNTE3NTc4IC0xMDggQzE3Mi41ODEyNTMwNTE3NTc4IC01Ni4zNjU0NjM0NDUwNjg1MzUsIDE3Mi41ODEyNTMwNTE3NTc4IC00LjczMDkyNjg5MDEzNzA3LCAxNzIuNTgxMjUzMDUxNzU3OCAxMDggTTE3Mi41ODEyNTMwNTE3NTc4IDEwOCBDMzkuNzU4MTQ5MTA0ODM2OTIgMTA4LCAtOTMuMDY0OTU0ODQyMDgzOTggMTA4LCAtMTcyLjU4MTI1MzA1MTc1NzggMTA4IE0xNzIuNTgxMjUzMDUxNzU3OCAxMDggQzc2Ljg0NzE4NzM2MDg0Njg3IDEwOCwgLTE4Ljg4Njg3ODMzMDA2NDA2NCAxMDgsIC0xNzIuNTgxMjUzMDUxNzU3OCAxMDggTS0xNzIuNTgxMjUzMDUxNzU3OCAxMDggQy0xNzIuNTgxMjUzMDUxNzU3OCA2Mi4xNzAwMjc3NDA2OTc1OSwgLTE3Mi41ODEyNTMwNTE3NTc4IDE2LjM0MDA1NTQ4MTM5NTE4MywgLTE3Mi41ODEyNTMwNTE3NTc4IC0xMDggTS0xNzIuNTgxMjUzMDUxNzU3OCAxMDggQy0xNzIuNTgxMjUzMDUxNzU3OCAzOC40NDQ4NTQxMzc1Nzg1OSwgLTE3Mi41ODEyNTMwNTE3NTc4IC0zMS4xMTAyOTE3MjQ4NDI4MjQsIC0xNzIuNTgxMjUzMDUxNzU3OCAtMTA4Ij48L3BhdGg+PC9nPjxnIHRyYW5zZm9ybT0idHJhbnNsYXRlKDAsIC04NCkiIGNsYXNzPSJhbm5vdGF0aW9uLWdyb3VwIHRleHQiPjwvZz48ZyB0cmFuc2Zvcm09InRyYW5zbGF0ZSgtNzQuMTEyNTAzMDUxNzU3ODEsIC04NCkiIGNsYXNzPSJsYWJlbC1ncm91cCB0ZXh0Ij48ZyB0cmFuc2Zvcm09InRyYW5zbGF0ZSgwLC0xMikiIHN0eWxlPSJmb250LXdlaWdodDogYm9sZGVyIiBjbGFzcz0ibGFiZWwiPjxmb3JlaWduT2JqZWN0IGhlaWdodD0iMjQiIHdpZHRoPSIxNDguMjI1MDA2MTAzNTE1NjIiPjxkaXYgc3R5bGU9ImRpc3BsYXk6IHRhYmxlLWNlbGw7IHdoaXRlLXNwYWNlOiBub3dyYXA7IGxpbmUtaGVpZ2h0OiAxLjU7IG1heC13aWR0aDogMTkxcHg7IHRleHQtYWxpZ246IGNlbnRlcjsiIHhtbG5zPSJodHRwOi8vd3d3LnczLm9yZy8xOTk5L3hodG1sIj48c3BhbiBzdHlsZT0iIiBjbGFzcz0ibm9kZUxhYmVsIG1hcmtkb3duLW5vZGUtbGFiZWwiPjxwPkRpcmVjdG9yeUNvbXBvc2l0ZTwvcD48L3NwYW4+PC9kaXY+PC9mb3JlaWduT2JqZWN0PjwvZz48L2c+PGcgdHJhbnNmb3JtPSJ0cmFuc2xhdGUoLTE2MC41ODEyNTMwNTE3NTc4LCAtMzYpIiBjbGFzcz0ibWVtYmVycy1ncm91cCB0ZXh0Ij48ZyB0cmFuc2Zvcm09InRyYW5zbGF0ZSgwLC0xMikiIHN0eWxlPSIiIGNsYXNzPSJsYWJlbCI+PGZvcmVpZ25PYmplY3QgaGVpZ2h0PSIyNCIgd2lkdGg9IjkxLjQ1MDAwNDU3NzYzNjcyIj48ZGl2IHN0eWxlPSJkaXNwbGF5OiB0YWJsZS1jZWxsOyB3aGl0ZS1zcGFjZTogbm93cmFwOyBsaW5lLWhlaWdodDogMS41OyBtYXgtd2lkdGg6IDE0OHB4OyB0ZXh0LWFsaWduOiBjZW50ZXI7IiB4bWxucz0iaHR0cDovL3d3dy53My5vcmcvMTk5OS94aHRtbCI+PHNwYW4gc3R5bGU9IiIgY2xhc3M9Im5vZGVMYWJlbCBtYXJrZG93bi1ub2RlLWxhYmVsIj48cD4tU3RyaW5nIG5hbWU8L3A+PC9zcGFuPjwvZGl2PjwvZm9yZWlnbk9iamVjdD48L2c+PGcgdHJhbnNmb3JtPSJ0cmFuc2xhdGUoMCwxMikiIHN0eWxlPSIiIGNsYXNzPSJsYWJlbCI+PGZvcmVpZ25PYmplY3QgaGVpZ2h0PSIyNCIgd2lkdGg9IjEwOS43NzUwMDE1MjU4Nzg5Ij48ZGl2IHN0eWxlPSJkaXNwbGF5OiB0YWJsZS1jZWxsOyB3aGl0ZS1zcGFjZTogbm93cmFwOyBsaW5lLWhlaWdodDogMS41OyBtYXgtd2lkdGg6IDIwMHB4OyB0ZXh0LWFsaWduOiBjZW50ZXI7IiB4bWxucz0iaHR0cDovL3d3dy53My5vcmcvMTk5OS94aHRtbCI+PHNwYW4gc3R5bGU9IiIgY2xhc3M9Im5vZGVMYWJlbCBtYXJrZG93bi1ub2RlLWxhYmVsIj48cD4tTGlzdCZsdDtGaWxlJmd0OyBmaWxlczwvcD48L3NwYW4+PC9kaXY+PC9mb3JlaWduT2JqZWN0PjwvZz48L2c+PGcgdHJhbnNmb3JtPSJ0cmFuc2xhdGUoLTE2MC41ODEyNTMwNTE3NTc4LCAzNikiIGNsYXNzPSJtZXRob2RzLWdyb3VwIHRleHQiPjxnIHRyYW5zZm9ybT0idHJhbnNsYXRlKDAsLTEyKSIgc3R5bGU9IiIgY2xhc3M9ImxhYmVsIj48Zm9yZWlnbk9iamVjdCBoZWlnaHQ9IjI0IiB3aWR0aD0iMjQ3LjA1MDAwMzA1MTc1NzgiPjxkaXYgc3R5bGU9ImRpc3BsYXk6IHRhYmxlLWNlbGw7IHdoaXRlLXNwYWNlOiBub3dyYXA7IGxpbmUtaGVpZ2h0OiAxLjU7IG1heC13aWR0aDogMzAzcHg7IHRleHQtYWxpZ246IGNlbnRlcjsiIHhtbG5zPSJodHRwOi8vd3d3LnczLm9yZy8xOTk5L3hodG1sIj48c3BhbiBzdHlsZT0iIiBjbGFzcz0ibm9kZUxhYmVsIG1hcmtkb3duLW5vZGUtbGFiZWwiPjxwPitEaXJlY3RvcnlDb21wb3NpdGUoU3RyaW5nIG5hbWUpPC9wPjwvc3Bhbj48L2Rpdj48L2ZvcmVpZ25PYmplY3Q+PC9nPjxnIHRyYW5zZm9ybT0idHJhbnNsYXRlKDAsMTIpIiBzdHlsZT0iIiBjbGFzcz0ibGFiZWwiPjxmb3JlaWduT2JqZWN0IGhlaWdodD0iMjQiIHdpZHRoPSIxMDQuOTAwMDAxNTI1ODc4OSI+PGRpdiBzdHlsZT0iZGlzcGxheTogdGFibGUtY2VsbDsgd2hpdGUtc3BhY2U6IG5vd3JhcDsgbGluZS1oZWlnaHQ6IDEuNTsgbWF4LXdpZHRoOiAxNjJweDsgdGV4dC1hbGlnbjogY2VudGVyOyIgeG1sbnM9Imh0dHA6Ly93d3cudzMub3JnLzE5OTkveGh0bWwiPjxzcGFuIHN0eWxlPSIiIGNsYXNzPSJub2RlTGFiZWwgbWFya2Rvd24tbm9kZS1sYWJlbCI+PHA+K3Nob3dEZXRhaWxzKCk8L3A+PC9zcGFuPjwvZGl2PjwvZm9yZWlnbk9iamVjdD48L2c+PGcgdHJhbnNmb3JtPSJ0cmFuc2xhdGUoMCwzNikiIHN0eWxlPSIiIGNsYXNzPSJsYWJlbCI+PGZvcmVpZ25PYmplY3QgaGVpZ2h0PSIyNCIgd2lkdGg9IjEyNy45Mzc1Ij48ZGl2IHN0eWxlPSJkaXNwbGF5OiB0YWJsZS1jZWxsOyB3aGl0ZS1zcGFjZTogbm93cmFwOyBsaW5lLWhlaWdodDogMS41OyBtYXgtd2lkdGg6IDE3OHB4OyB0ZXh0LWFsaWduOiBjZW50ZXI7IiB4bWxucz0iaHR0cDovL3d3dy53My5vcmcvMTk5OS94aHRtbCI+PHNwYW4gc3R5bGU9IiIgY2xhc3M9Im5vZGVMYWJlbCBtYXJrZG93bi1ub2RlLWxhYmVsIj48cD4rYWRkRmlsZShGaWxlIGZpbGUpPC9wPjwvc3Bhbj48L2Rpdj48L2ZvcmVpZ25PYmplY3Q+PC9nPjwvZz48ZyBzdHlsZT0iIiBjbGFzcz0iZGl2aWRlciI+PHBhdGggc3R5bGU9IiIgZmlsbD0ibm9uZSIgc3Ryb2tlLXdpZHRoPSIxLjMiIHN0cm9rZT0iIzk5OSIgZD0iTS0xNzIuNTgxMjUzMDUxNzU3OCAtNjAgQy05NS41MzgwNjAwMDU4MjM0NCAtNjAsIC0xOC40OTQ4NjY5NTk4ODkwNjYgLTYwLCAxNzIuNTgxMjUzMDUxNzU3OCAtNjAgTS0xNzIuNTgxMjUzMDUxNzU3OCAtNjAgQy05OC4wMzU4NDMwNTQ5NTc2OCAtNjAsIC0yMy40OTA0MzMwNTgxNTc1NSAtNjAsIDE3Mi41ODEyNTMwNTE3NTc4IC02MCI+PC9wYXRoPjwvZz48ZyBzdHlsZT0iIiBjbGFzcz0iZGl2aWRlciI+PHBhdGggc3R5bGU9IiIgZmlsbD0ibm9uZSIgc3Ryb2tlLXdpZHRoPSIxLjMiIHN0cm9rZT0iIzk5OSIgZD0iTS0xNzIuNTgxMjUzMDUxNzU3OCAxMiBDLTY3Ljk4MTYwODkxNTIzNzU5IDEyLCAzNi42MTgwMzUyMjEyODI2NCAxMiwgMTcyLjU4MTI1MzA1MTc1NzggMTIgTS0xNzIuNTgxMjUzMDUxNzU3OCAxMiBDLTY1LjY2MTk1OTI4NzgxMzU0IDEyLCA0MS4yNTczMzQ0NzYxMzA3MiAxMiwgMTcyLjU4MTI1MzA1MTc1NzggMTIiPjwvcGF0aD48L2c+PC9nPjxnIHRyYW5zZm9ybT0idHJhbnNsYXRlKDQ5OC45MzEyNjI5Njk5NzA3LCA3MSkiIGlkPSJjbGFzc0lkLUNvbXBvc2l0ZURQLTMiIGNsYXNzPSJub2RlIGRlZmF1bHQiPjxnIGNsYXNzPSJiYXNpYyBsYWJlbC1jb250YWluZXIiPjxwYXRoIHN0eWxlPSIiIGZpbGw9IiNlZWUiIHN0cm9rZS13aWR0aD0iMCIgc3Ryb2tlPSJub25lIiBkPSJNLTEwNy42ODEyNTE1MjU4Nzg5IC02MyBMMTA3LjY4MTI1MTUyNTg3ODkgLTYzIEwxMDcuNjgxMjUxNTI1ODc4OSA2MyBMLTEwNy42ODEyNTE1MjU4Nzg5IDYzIj48L3BhdGg+PHBhdGggc3R5bGU9IiIgZmlsbD0ibm9uZSIgc3Ryb2tlLXdpZHRoPSIxLjMiIHN0cm9rZT0iIzk5OSIgZD0iTS0xMDcuNjgxMjUxNTI1ODc4OSAtNjMgQy01Ny4wMTMwNDgyNTI5Mzk4NyAtNjMsIC02LjM0NDg0NDk4MDAwMDgyOSAtNjMsIDEwNy42ODEyNTE1MjU4Nzg5IC02MyBNLTEwNy42ODEyNTE1MjU4Nzg5IC02MyBDLTM0LjY1ODU4OTI4NDEyNjYyIC02MywgMzguMzY0MDcyOTU3NjI1NjY2IC02MywgMTA3LjY4MTI1MTUyNTg3ODkgLTYzIE0xMDcuNjgxMjUxNTI1ODc4OSAtNjMgQzEwNy42ODEyNTE1MjU4Nzg5IC0xNi4yNzAxNzM5NDI5NzY2OSwgMTA3LjY4MTI1MTUyNTg3ODkgMzAuNDU5NjUyMTE0MDQ2NjIsIDEwNy42ODEyNTE1MjU4Nzg5IDYzIE0xMDcuNjgxMjUxNTI1ODc4OSAtNjMgQzEwNy42ODEyNTE1MjU4Nzg5IC0zMS43MDA0NjAxNTkxMDA5MiwgMTA3LjY4MTI1MTUyNTg3ODkgLTAuNDAwOTIwMzE4MjAxODQxMDQsIDEwNy42ODEyNTE1MjU4Nzg5IDYzIE0xMDcuNjgxMjUxNTI1ODc4OSA2MyBDMjIuMjIxMTg5MDMxNTIzODM1IDYzLCAtNjMuMjM4ODczNDYyODMxMjM2IDYzLCAtMTA3LjY4MTI1MTUyNTg3ODkgNjMgTTEwNy42ODEyNTE1MjU4Nzg5IDYzIEMzMi41NzIzODM0NTEyMzM2OCA2MywgLTQyLjUzNjQ4NDYyMzQxMTU1IDYzLCAtMTA3LjY4MTI1MTUyNTg3ODkgNjMgTS0xMDcuNjgxMjUxNTI1ODc4OSA2MyBDLTEwNy42ODEyNTE1MjU4Nzg5IDIzLjQwMDE5NjI3ODI5Mjk4LCAtMTA3LjY4MTI1MTUyNTg3ODkgLTE2LjE5OTYwNzQ0MzQxNDA0LCAtMTA3LjY4MTI1MTUyNTg3ODkgLTYzIE0tMTA3LjY4MTI1MTUyNTg3ODkgNjMgQy0xMDcuNjgxMjUxNTI1ODc4OSAzMC45NjY2MjE5ODM4OTI3ODYsIC0xMDcuNjgxMjUxNTI1ODc4OSAtMS4wNjY3NTYwMzIyMTQ0MjgzLCAtMTA3LjY4MTI1MTUyNTg3ODkgLTYzIj48L3BhdGg+PC9nPjxnIHRyYW5zZm9ybT0idHJhbnNsYXRlKDAsIC0zOSkiIGNsYXNzPSJhbm5vdGF0aW9uLWdyb3VwIHRleHQiPjwvZz48ZyB0cmFuc2Zvcm09InRyYW5zbGF0ZSgtNDguOTI0OTk5MjM3MDYwNTUsIC0zOSkiIGNsYXNzPSJsYWJlbC1ncm91cCB0ZXh0Ij48ZyB0cmFuc2Zvcm09InRyYW5zbGF0ZSgwLC0xMikiIHN0eWxlPSJmb250LXdlaWdodDogYm9sZGVyIiBjbGFzcz0ibGFiZWwiPjxmb3JlaWduT2JqZWN0IGhlaWdodD0iMjQiIHdpZHRoPSI5Ny44NDk5OTg0NzQxMjExIj48ZGl2IHN0eWxlPSJkaXNwbGF5OiB0YWJsZS1jZWxsOyB3aGl0ZS1zcGFjZTogbm93cmFwOyBsaW5lLWhlaWdodDogMS41OyBtYXgtd2lkdGg6IDE0NnB4OyB0ZXh0LWFsaWduOiBjZW50ZXI7IiB4bWxucz0iaHR0cDovL3d3dy53My5vcmcvMTk5OS94aHRtbCI+PHNwYW4gc3R5bGU9IiIgY2xhc3M9Im5vZGVMYWJlbCBtYXJrZG93bi1ub2RlLWxhYmVsIj48cD5Db21wb3NpdGVEUDwvcD48L3NwYW4+PC9kaXY+PC9mb3JlaWduT2JqZWN0PjwvZz48L2c+PGcgdHJhbnNmb3JtPSJ0cmFuc2xhdGUoLTk1LjY4MTI1MTUyNTg3ODksIDkpIiBjbGFzcz0ibWVtYmVycy1ncm91cCB0ZXh0Ij48L2c+PGcgdHJhbnNmb3JtPSJ0cmFuc2xhdGUoLTk1LjY4MTI1MTUyNTg3ODksIDM5KSIgY2xhc3M9Im1ldGhvZHMtZ3JvdXAgdGV4dCI+PGcgdHJhbnNmb3JtPSJ0cmFuc2xhdGUoMCwtMTIpIiBzdHlsZT0iIiBjbGFzcz0ibGFiZWwiPjxmb3JlaWduT2JqZWN0IGhlaWdodD0iMjQiIHdpZHRoPSIxNDIuNDM3NSI+PGRpdiBzdHlsZT0iZGlzcGxheTogdGFibGUtY2VsbDsgd2hpdGUtc3BhY2U6IG5vd3JhcDsgbGluZS1oZWlnaHQ6IDEuNTsgbWF4LXdpZHRoOiAxOThweDsgdGV4dC1hbGlnbjogY2VudGVyOyIgeG1sbnM9Imh0dHA6Ly93d3cudzMub3JnLzE5OTkveGh0bWwiPjxzcGFuIHN0eWxlPSIiIGNsYXNzPSJub2RlTGFiZWwgbWFya2Rvd24tbm9kZS1sYWJlbCI+PHA+K21haW4oU3RyaW5nW10gYXJncyk8L3A+PC9zcGFuPjwvZGl2PjwvZm9yZWlnbk9iamVjdD48L2c+PC9nPjxnIHN0eWxlPSIiIGNsYXNzPSJkaXZpZGVyIj48cGF0aCBzdHlsZT0iIiBmaWxsPSJub25lIiBzdHJva2Utd2lkdGg9IjEuMyIgc3Ryb2tlPSIjOTk5IiBkPSJNLTEwNy42ODEyNTE1MjU4Nzg5IC0xNSBDLTI1LjY4NzM4MDMxMDgyNjAzIC0xNSwgNTYuMzA2NDkwOTA0MjI2ODUgLTE1LCAxMDcuNjgxMjUxNTI1ODc4OSAtMTUgTS0xMDcuNjgxMjUxNTI1ODc4OSAtMTUgQy02My42Mzg2NjY4NTI2NjI0NiAtMTUsIC0xOS41OTYwODIxNzk0NDYwMTQgLTE1LCAxMDcuNjgxMjUxNTI1ODc4OSAtMTUiPjwvcGF0aD48L2c+PGcgc3R5bGU9IiIgY2xhc3M9ImRpdmlkZXIiPjxwYXRoIHN0eWxlPSIiIGZpbGw9Im5vbmUiIHN0cm9rZS13aWR0aD0iMS4zIiBzdHJva2U9IiM5OTkiIGQ9Ik0tMTA3LjY4MTI1MTUyNTg3ODkgOSBDLTQ4LjM4ODYzNTUzNjk3NDUzIDksIDEwLjkwMzk4MDQ1MTkyOTg0IDksIDEwNy42ODEyNTE1MjU4Nzg5IDkgTS0xMDcuNjgxMjUxNTI1ODc4OSA5IEMtMzYuOTQ5OTg0OTkwOTQ1NDEgOSwgMzMuNzgxMjgxNTQzOTg4MDkgOSwgMTA3LjY4MTI1MTUyNTg3ODkgOSI+PC9wYXRoPjwvZz48L2c+PC9nPjwvZz48L2c+PC9zdmc+;" vertex="1" parent="1">
                        <mxGeometry x="80" y="-50" width="628.6875" height="676.7999877929688" as="geometry"/>
                    </mxCell>
                </UserObject>
            </root>
        </mxGraphModel>
    </diagram>
</mxfile>